<svg version="1.1" viewBox="0.0 0.0 188.9763779527559 188.9763779527559" fill="none" stroke="none" stroke-linecap="square" stroke-miterlimit="10" xmlns:xlink="http://www.w3.org/1999/xlink" xmlns="http://www.w3.org/2000/svg"><clipPath id="p.0"><path d="m0 0l188.97638 0l0 188.97638l-188.97638 0l0 -188.97638z" clip-rule="nonzero"/></clipPath><g clip-path="url(#p.0)"><path fill="#000000" fill-opacity="0.0" d="m0 0l188.97638 0l0 188.97638l-188.97638 0z" fill-rule="evenodd"/><path fill="#7b3f00" d="m19.070866 94.48844l0 0c0 -7.210144 5.8449764 -13.055115 13.055119 -13.055115l124.7244 0c3.4624329 0 6.783066 1.3754425 9.231369 3.8237534c2.4483032 2.4483109 3.823761 5.7689285 3.823761 9.231361l0 0l0 0c0 7.210144 -5.844986 13.055122 -13.05513 13.055122l-124.7244 0c-7.210142 0 -13.055119 -5.8449783 -13.055119 -13.055122z" fill-rule="evenodd"/><path fill="#7b3f00" d="m19.133656 145.83244l0 0c0 -7.210144 5.8449745 -13.055115 13.055119 -13.055115l124.59843 0c3.4624329 0 6.7830505 1.3754425 9.231354 3.8237457c2.4483185 2.4483185 3.823761 5.768936 3.823761 9.231369l0 0l0 0c0 7.210144 -5.8449707 13.055115 -13.055115 13.055115l-124.59843 0c-7.210144 0 -13.055119 -5.8449707 -13.055119 -13.055115z" fill-rule="evenodd"/><path fill="#7b3f00" d="m19.133656 43.144344l0 0c0 -7.210144 5.8449745 -13.055119 13.055119 -13.055119l124.59843 0c3.4624329 0 6.7830505 1.3754463 9.231354 3.8237572c2.4483185 2.448307 3.823761 5.7689285 3.823761 9.231361l0 0l0 0c0 7.210144 -5.8449707 13.055119 -13.055115 13.055119l-124.59843 0c-7.210144 0 -13.055119 -5.8449745 -13.055119 -13.055119z" fill-rule="evenodd"/></g></svg>