<svg version="1.1" viewBox="0.0 0.0 188.9763779527559 188.9763779527559" fill="none" stroke="none" stroke-linecap="square" stroke-miterlimit="10" xmlns:xlink="http://www.w3.org/1999/xlink" xmlns="http://www.w3.org/2000/svg"><clipPath id="p.0"><path d="m0 0l188.97638 0l0 188.97638l-188.97638 0l0 -188.97638z" clip-rule="nonzero"/></clipPath><g clip-path="url(#p.0)"><path fill="#000000" fill-opacity="0.0" d="m0 0l188.97638 0l0 188.97638l-188.97638 0z" fill-rule="evenodd"/><path fill="#000000" fill-opacity="0.0" d="m31.68504 -22.440945l125.60629 0l0 233.85828l-125.60629 0z" fill-rule="evenodd"/><path fill="#7b3f00" d="m94.38816 138.45341q-4.3125 0 -7.15625 -2.828125q-2.84375 -2.84375 -2.84375 -7.15625q0 -7.65625 3.921875 -16.765625q3.921875 -9.109375 12.15625 -16.171875q5.484375 -4.703125 10.09375 -9.296875q4.609375 -4.609375 7.4375 -10.59375q2.84375 -5.984375 2.84375 -14.609371q0 -6.265625 -2.9375 -11.75q-2.9375 -5.484375 -8.328125 -8.90625q-5.390625 -3.4375 -13.234375 -3.4375q-9.59375 0 -15.875 3.53125q-6.265625 3.515625 -9.3125 9.796875q-3.03125 6.265625 -3.03125 14.687496q0 4.3125 -2.75 7.15625q-2.7343712 2.84375 -7.249996 2.84375q-4.3125 0 -7.15625 -2.84375q-2.828125 -2.84375 -2.828125 -7.15625q0 -13.718746 5.96875 -24.093746q5.984375 -10.390625 16.859371 -16.375q10.875 -5.984375 25.375 -5.984375q12.75 0 22.640625 5.390625q9.906258 5.390625 15.687508 14.90625q5.78125 9.5 5.78125 22.234375q0 10.984371 -3.53125 19.031246q-3.53125 8.03125 -9.609383 14.40625q-6.0625 6.359375 -13.90625 12.625q-5.09375 4.125 -7.0625 10.6875q-1.953125 6.5625 -1.953125 10.6875q0 4.3125 -2.75 7.15625q-2.734375 2.828125 -7.25 2.828125zm0 36.265625q-5.484375 0 -9.5 -4.015625q-4.015625 -4.015625 -4.015625 -9.515625q0 -5.671875 4.015625 -9.6875q4.015625 -4.03125 9.5 -4.03125q5.6875 0 9.703125 4.03125q4.015625 4.015625 4.015625 9.6875q0 5.5 -4.015625 9.515625q-4.015625 4.015625 -9.703125 4.015625z" fill-rule="nonzero"/></g></svg>