<svg version="1.1" viewBox="0.0 0.0 188.9763779527559 188.9763779527559" fill="none" stroke="none" stroke-linecap="square" stroke-miterlimit="10" xmlns:xlink="http://www.w3.org/1999/xlink" xmlns="http://www.w3.org/2000/svg"><clipPath id="p.0"><path d="m0 0l188.97638 0l0 188.97638l-188.97638 0l0 -188.97638z" clip-rule="nonzero"/></clipPath><g clip-path="url(#p.0)"><path fill="#000000" fill-opacity="0.0" d="m0 0l188.97638 0l0 188.97638l-188.97638 0z" fill-rule="evenodd"/><path fill="#000000" fill-opacity="0.0" d="m94.48819 32.047245l0 0c27.708504 0 52.1028 18.260284 59.910675 44.845966c7.8078613 26.585686 -2.838501 55.136955 -26.146713 70.119896c-23.308212 14.982941 -53.7025 12.813339 -74.64622 -5.3283844c-20.943714 -18.141716 -27.426716 -47.91571 -15.921791 -73.12281l56.804047 25.926277z" fill-rule="evenodd"/><path fill="#000000" fill-opacity="0.0" d="m94.48819 32.047245l0 0c27.708504 0 52.1028 18.260284 59.910675 44.845966c7.8078613 26.585686 -2.838501 55.136955 -26.146713 70.119896c-23.308212 14.982941 -53.7025 12.813339 -74.64622 -5.3283844c-20.943714 -18.141716 -27.426716 -47.91571 -15.921791 -73.12281" fill-rule="evenodd"/><path stroke="#7b3f00" stroke-width="16.0" stroke-linejoin="round" stroke-linecap="butt" d="m94.48819 32.047245l0 0c27.708504 0 52.1028 18.260284 59.910675 44.845966c7.8078613 26.585686 -2.838501 55.136955 -26.146713 70.119896c-23.308212 14.982941 -53.7025 12.813339 -74.64622 -5.3283844c-20.943714 -18.141716 -27.426716 -47.91571 -15.921791 -73.12281" fill-rule="evenodd"/><path fill="#7b3f00" d="m65.85696 31.781937l28.629921 -28.629921l0 57.259842z" fill-rule="evenodd"/></g></svg>